<svg width="20" height="16" viewBox="0 0 20 16" fill="none" xmlns="http://www.w3.org/2000/svg">
<path fill-rule="evenodd" clip-rule="evenodd" d="M4.16168 8.60055e-07H15.8388C16.3659 -1.70213e-05 16.8205 -3.25181e-05 17.1949 0.0305751C17.5902 0.0628916 17.9831 0.134244 18.3614 0.326982C18.9248 0.614051 19.3851 1.07224 19.6732 1.63781C19.8659 2.016 19.9372 2.40906 19.9695 2.80397C20 3.17815 20 3.6323 20 4.15839V11.8421C20 12.3682 20 12.8222 19.9695 13.1962C19.9372 13.591 19.8659 13.9838 19.6732 14.3619C19.3854 14.9269 18.9254 15.3859 18.3614 15.6732C17.9833 15.8659 17.5905 15.9372 17.1957 15.9695C16.8217 16 16.3677 16 15.8416 16H4.15839C3.6323 16 3.17815 16 2.80397 15.9695C2.40906 15.9372 2.016 15.8659 1.63781 15.6732C1.07276 15.3853 0.614314 14.9258 0.326982 14.3619C0.13421 13.9835 0.0628795 13.5904 0.0305727 13.1951C-3.25181e-05 12.8206 -1.70213e-05 12.3659 8.60089e-07 11.8388V4.16168C-1.70213e-05 3.63451 -3.23988e-05 3.17965 0.0305692 2.80499C0.0628619 2.40962 0.134158 2.01625 0.326982 1.63781C0.614602 1.07332 1.07332 0.614602 1.63781 0.326982C2.01625 0.134158 2.40962 0.0628619 2.80499 0.0305692C3.17965 -3.23988e-05 3.63451 -1.70213e-05 4.16168 8.60055e-07ZM3.66103 2.00124L8.71027 5.81425C8.71123 5.81497 8.71219 5.8157 8.71314 5.81643C9.45093 6.35724 9.60944 6.45194 9.74917 6.48808C9.9134 6.53055 10.0863 6.53055 10.2506 6.48808C10.3908 6.45181 10.5505 6.35625 11.2925 5.81225L11.457 5.68613C11.5687 5.60061 11.7305 5.47669 11.9316 5.323C12.3336 5.01564 12.8925 4.58906 13.52 4.11219C14.3971 3.44563 15.4111 2.67862 16.3186 2.0011C16.1662 2.00009 15.9948 2 15.8002 2H4.2002C3.99674 2 3.8187 2.0001 3.66103 2.00124ZM17.9915 3.24914C16.9855 3.99551 15.7662 4.91716 14.7301 5.70454C14.1045 6.17999 13.5472 6.60536 13.1463 6.91187C12.9458 7.06512 12.7845 7.18862 12.6733 7.27378L12.5021 7.40507L12.4839 7.41867C12.4439 7.44802 12.4043 7.47717 12.365 7.50607C11.806 7.9173 11.3149 8.27861 10.7514 8.42436C10.2587 8.55179 9.74106 8.55179 9.24835 8.42436C8.68518 8.27869 8.19502 7.9181 7.637 7.50758C7.59779 7.47874 7.55824 7.44964 7.51831 7.42036C7.51036 7.41453 7.50249 7.40858 7.49472 7.40252L2.00824 3.25933C2.00037 3.5008 2 3.80175 2 4.2002V11.8002C2 12.3768 2.00078 12.7489 2.02393 13.0322C2.04612 13.3037 2.08378 13.4044 2.109 13.4539C2.20516 13.6426 2.35819 13.7956 2.54579 13.8912C2.59501 13.9163 2.69554 13.9539 2.96686 13.9761C3.2498 13.9992 3.62146 14 4.19691 14H15.8031C16.3786 14 16.75 13.9992 17.0327 13.9761C17.3036 13.954 17.4041 13.9164 17.4534 13.8912C17.6421 13.7951 17.7956 13.6415 17.8912 13.4539C17.9164 13.4046 17.954 13.3041 17.9761 13.0332C17.9992 12.7505 18 12.379 18 11.8036V4.19691C18 3.79441 17.9996 3.49161 17.9915 3.24914Z" fill="#323232"/>
</svg>
