<svg width="20" height="20" viewBox="0 0 20 20" fill="none" xmlns="http://www.w3.org/2000/svg">
<path fill-rule="evenodd" clip-rule="evenodd" d="M2.89474 2C2.40045 2 2 2.40052 2 2.89453C2 11.2369 8.76306 18 17.1055 18C17.5994 18 18 17.5995 18 17.1052L18.0005 14.354C18.0005 14.3539 18.0005 14.354 18.0005 14.354C18.0004 13.9451 17.7516 13.5775 17.3721 13.4257C17.3721 13.4256 17.3721 13.4257 17.3721 13.4257L14.7357 12.3715C14.3944 12.235 14.0061 12.2964 13.7241 12.5314L13.044 13.0986C11.8523 14.0917 10.0985 14.0133 9.00109 12.9159L7.08512 10.9982C7.08501 10.9981 7.08522 10.9983 7.08512 10.9982C5.98897 9.90169 5.90687 8.14912 6.90072 6.9565L7.46811 6.27611C7.46818 6.27603 7.46803 6.2762 7.46811 6.27611C7.70363 5.99329 7.76523 5.60459 7.62919 5.26448L6.57409 2.62887C6.42222 2.24921 6.05441 2 5.64551 2H2.89474ZM0 2.89453C0 1.29567 1.29616 0 2.89474 0H5.64551C6.87222 0 7.97535 0.746853 8.43094 1.88583L9.48604 4.52144C9.89561 5.54536 9.70941 6.71065 9.00455 7.55648L8.43717 8.23687C8.10669 8.63344 8.13291 9.21753 8.49933 9.58395L10.4153 11.5017C10.7808 11.8668 11.3659 11.8937 11.7633 11.5625L12.4434 10.9952C13.2901 10.2897 14.4554 10.1053 15.4782 10.5144C15.4782 10.5144 15.4782 10.5144 15.4782 10.5144L18.1146 11.5686C19.2537 12.0242 20.0005 13.1273 20.0005 14.354L20 17.1052C20 17.1052 20 17.1051 20 17.1052C19.9999 18.7036 18.7043 20 17.1055 20C7.65849 20 0 12.3415 0 2.89453Z" fill="#323232"/>
</svg>
