<svg width="16" height="20" viewBox="0 0 16 20" fill="none" xmlns="http://www.w3.org/2000/svg">
<path fill-rule="evenodd" clip-rule="evenodd" d="M8.00008 2C6.40527 2 4.87785 2.62678 3.75344 3.73883C2.62939 4.85054 2 6.35559 2 7.92285C2 10.0583 2.9376 12.0708 4.1689 13.7827C5.39515 15.4876 6.85427 16.8126 7.75671 17.5515C7.82599 17.6082 7.87698 17.6499 7.92168 17.6851C7.95806 17.7138 7.98274 17.7321 8.00011 17.7443C8.01733 17.7322 8.04191 17.714 8.07829 17.6854C8.12293 17.6502 8.174 17.6085 8.24343 17.5516C9.14588 16.8127 10.6049 15.4878 11.8311 13.783C13.0624 12.0712 13.9999 10.0588 13.9999 7.9233C13.9999 6.35594 13.3705 4.85036 12.2465 3.73872C11.1221 2.62668 9.5949 2 8.00008 2ZM2.34706 2.31683C3.84816 0.832226 5.88186 0 8.00008 0C10.1183 0 12.1518 0.832109 13.6529 2.31672C15.1544 3.80175 15.9999 5.81843 15.9999 7.9233C15.9999 10.6396 14.8154 13.0591 13.4548 14.9508C12.0892 16.8495 10.4867 18.2997 9.51048 19.0991C9.49415 19.1125 9.47744 19.1262 9.46034 19.1404C9.23899 19.323 8.95088 19.5607 8.54201 19.6758C8.20858 19.7697 7.79112 19.7697 7.45771 19.6758C7.04941 19.5609 6.76003 19.322 6.54048 19.1408C6.52312 19.1264 6.50619 19.1125 6.48967 19.0989C5.5134 18.2996 3.91092 16.8493 2.54525 14.9505C1.18463 13.0588 0 10.6392 0 7.92285C0 5.81788 0.845607 3.80179 2.34706 2.31683ZM8 6C7.44772 6 7 6.44772 7 7C7 7.55228 7.44772 8 8 8C8.55228 8 9 7.55228 9 7C9 6.44772 8.55228 6 8 6ZM5 7C5 5.34315 6.34315 4 8 4C9.65685 4 11 5.34315 11 7C11 8.65685 9.65685 10 8 10C6.34315 10 5 8.65685 5 7Z" fill="#323232"/>
</svg>
